<svg id="Ebene_1" data-name="Ebene 1" xmlns="http://www.w3.org/2000/svg" viewBox="0 0 121 1000"><path d="M9.78,991.5v-53H26.3v34.34H47.19V940.64H62.41v32.22h32.8V991.5Z"/><path d="M5.77,927.19V909.14H95.21v18.05Z"/><path d="M61.46,896.39c-24.3,0-35-17.22-35-34.93s10.74-34.8,35-34.8c24.55,0,35.29,17.11,35.29,34.8S86,896.39,61.46,896.39Zm0-51.92c-12.62,0-20.17,7.08-20.17,17.11s7.43,17,20.17,17,20.3-7.08,20.3-17.12S74.21,844.47,61.46,844.47Z"/><path d="M61.46,816.27c-24.3,0-35-17.23-35-34.93s10.74-34.8,35-34.8c24.55,0,35.29,17.11,35.29,34.8S86,816.27,61.46,816.27Zm0-51.92c-12.62,0-20.17,7.08-20.17,17.11s7.43,17,20.17,17,20.3-7.08,20.3-17.12S74.21,764.35,61.46,764.35Z"/><path d="M61.46,736.15c-22.65,0-35-13.1-35-29.85,0-9.56,4.72-18.29,12.74-21.59H5.77V666.77H95.09v17.94h-11c7.79,3.3,12.63,12,12.63,21.47C96.75,722.94,84.12,736.15,61.46,736.15Zm0-52c-12.62,0-20.17,7.08-20.17,17.1s7.43,17,20.17,17,20.3-7.08,20.3-17.11S74.21,684.12,61.46,684.12Z"/><path d="M9.9,652.61c-5.9,0-9.08-4.37-9.08-10.27,0-5.54,3.18-10.26,9.08-10.26S19,636.8,19,642.34C19,648.24,15.68,652.61,9.9,652.61Zm17.82-1.3V633.49H95.21v17.82Z"/><path d="M27.72,618.15V600.22H38.57c-7.43-3.07-12.15-10.62-12.15-20.89,0-18.05,10.38-26.19,31.62-26.19H95.21v17.93H59.7c-12.39,0-18.06,4.61-18.06,14.64,0,10.38,6.61,14.51,19.12,14.51H95.21v17.93Z"/><path d="M99.7,540.16l-3.9-17.11c6.14-2.36,10-8.38,10-16.17,0-10.85-5.54-16.75-19.23-16.75H80.23c8,3.3,11.68,12,11.68,21.47,0,16.88-11.45,30-32.69,30s-32.56-13-32.56-29.85c0-9.56,3.65-18.29,11.91-21.59H27.72V472.19H83.29c25.37,0,36,11.56,36,34.81C119.28,524.11,112.2,535.91,99.7,540.16ZM59.22,489.65c-12.15,0-19.47,7-19.47,17.11,0,9.92,7.32,17,19.47,17,12.51,0,19.59-7.08,19.59-17.11S71.61,489.65,59.22,489.65Z"/></svg>