<svg id="Ebene_1" data-name="Ebene 1" xmlns="http://www.w3.org/2000/svg" viewBox="0 0 98 1000"><path d="M26.42,985.13v12.74H9.78V966.48H95.21v18.65Z"/><path d="M52.62,951.85c-30.45,0-43.78-17.58-43.78-37.17,0-19.35,13.33-36.93,43.78-36.93,31,0,43.89,17.46,43.89,37.17S83.65,951.85,52.62,951.85Zm0-55.57c-17.23,0-27.14,7.43-27.14,18.64s9.91,18.64,27.14,18.64c17.7,0,27.25-7.19,27.25-18.64S70.32,896.28,52.62,896.28Z"/><path d="M9.78,822.41V799.75l66-19.82-66-19.82V737.33l85.43-13.8v18.88l-60.88,9.67,60.88,18.76V788.9L34.33,807.78l60.88,9.67v18.76Z"/><path d="M9.9,714C4,714,.82,709.6.82,703.7c0-5.54,3.18-10.26,9.08-10.26S19,698.16,19,703.7C19,709.6,15.68,714,9.9,714Zm17.82-1.3V694.85H95.21v17.82Z"/><path d="M27.72,679.51V661.58H38.57c-7.43-3.07-12.15-10.62-12.15-20.89,0-18.05,10.38-26.19,31.62-26.19H95.21v17.93H59.7c-12.39,0-18.06,4.61-18.06,14.63,0,10.39,6.61,14.52,19.12,14.52H95.21v17.93Z"/><path d="M65,601.75H27.72V583.82H63.35c12.27,0,17.94-4.13,17.94-14.63s-6.61-14.4-19.12-14.4H27.72V536.85H95.21v17.94H84.47c7.32,3,12.16,10.62,12.16,20.77C96.63,593.61,86.24,601.75,65,601.75Z"/><path d="M68.31,517.26h-27v9.56H27.72v-9.56H15.56l-3.77-18.05H27.72V480.8H41.29v18.41H66.66c11.44,0,15.45-3.3,15.45-12.15a40,40,0,0,0-.59-5.43l13.57-2.36a50,50,0,0,1,1.18,10.85C96.27,508.53,88.84,517.26,68.31,517.26Z"/><path d="M61.46,474.43c-20.76,0-35-14.16-35-34.57,0-22.3,15.58-35.4,39.17-33.28V456.5c11-.36,17.35-7,17.35-17.7,0-7.67-2.83-12.75-8.38-15.22l2-16.41C89.67,412,96.51,423,96.51,439.27,96.51,460.51,82.59,474.43,61.46,474.43ZM53.8,423c-9,.71-14.75,6.85-14.75,16.41,0,9.2,5.19,15.69,14.75,16.75Z"/><path d="M95.21,312.54l-27.37,15c.12,1.53.12,3.06.12,4.6v9H95.21v18.77H9.78V332.25c0-27.5,9.21-38.71,28.68-38.71,12.27,0,21.24,5.43,26,16.76l30.79-18.88ZM53.91,331.3c0-13.1-3.54-19-14.16-19s-14.27,5.9-14.27,19v9.91H53.91Z"/><path d="M65,281.39H27.72V263.45H63.35c12.27,0,17.94-4.13,17.94-14.63s-6.61-14.4-19.12-14.4H27.72V216.49H95.21v17.93H84.47c7.32,3,12.16,10.62,12.16,20.77C96.63,273.25,86.24,281.39,65,281.39Z"/><path d="M78,205.63l-2.71-16.28c5.31-2.48,8.38-8.26,8.38-15.93,0-8-2.72-12.63-7.44-12.63-13.45,0-2.47,42.6-29.49,42.36-12.16-.23-20.18-12.27-20.18-29,0-13.93,6.49-26.43,17-29.74l2.83,16.05c-4.6,2-7.31,7.2-7.31,13.21,0,7.44,2.59,11.8,7.08,11.8,13.45,0,1.41-42.71,28.43-42.71,13.45,0,21.83,11.92,21.83,30.8C96.39,190.29,89,202.33,78,205.63Z"/><path d="M5.77,132V114.06h32.8c-6.6-2.59-12.15-9.55-12.15-20.88C26.42,76.42,35,67,58,67H95.21V84.92H59.7c-12.87,0-18.06,4.6-18.06,14.63s6.14,14.51,19.12,14.51H95.21V132Z"/></svg>